<?xml version="1.0" encoding="iso-8859-1"?>
<!-- Generator: Adobe Illustrator 19.0.0, SVG Export Plug-In . SVG Version: 6.00 Build 0)  -->
<svg version="1.1" id="Layer_1" xmlns="http://www.w3.org/2000/svg" xmlns:xlink="http://www.w3.org/1999/xlink" x="0px" y="0px"
	 viewBox="0 0 512 512" style="enable-background:new 0 0 512 512;" xml:space="preserve">
<path style="fill:#507C5C;" d="M393.789,512H118.212c-32.327,0-58.627-26.3-58.627-58.627v-225.87
	c0-7.762,6.293-14.057,14.057-14.057S87.7,219.74,87.7,227.502v225.87c0,16.825,13.688,30.513,30.513,30.513h275.577
	c16.824,0,30.511-13.688,30.511-30.513v-97.789c0-7.762,6.295-14.057,14.057-14.057s14.057,6.295,14.057,14.057v97.789
	C452.415,485.7,426.115,512,393.789,512z"/>
<rect x="42.271" y="188.423" style="fill:#CFF09E;" width="427.467" height="90.472"/>
<path style="fill:#507C5C;" d="M469.731,292.957H42.269c-7.764,0-14.057-6.295-14.057-14.057v-90.475
	c0-7.762,6.293-14.057,14.057-14.057h427.461c7.762,0,14.057,6.295,14.057,14.057V278.9
	C483.788,286.664,477.494,292.957,469.731,292.957z M56.327,264.843h399.347v-62.361H56.327V264.843z"/>
<polygon style="fill:#CFF09E;" points="285.52,98.158 285.52,14.057 226.48,14.057 226.48,98.158 160.211,98.158 256,233.096 
	351.789,98.158 "/>
<path style="fill:#507C5C;" d="M256,247.152c-4.555,0-8.827-2.206-11.462-5.921l-95.789-134.937
	c-3.045-4.287-3.44-9.916-1.026-14.587c2.412-4.671,7.231-7.606,12.49-7.606h52.211V14.057C212.424,6.295,218.717,0,226.481,0h59.04
	c7.762,0,14.057,6.295,14.057,14.057V84.1h52.211c5.257,0,10.076,2.935,12.49,7.606c2.414,4.671,2.017,10.3-1.026,14.587
	l-95.789,134.937C264.828,244.946,260.556,247.152,256,247.152z M187.43,112.215l68.571,96.596l68.57-96.596h-39.05
	c-7.762,0-14.057-6.295-14.057-14.057V28.114h-30.926v70.043c0,7.762-6.293,14.057-14.057,14.057L187.43,112.215L187.43,112.215z"/>
<g>
</g>
<g>
</g>
<g>
</g>
<g>
</g>
<g>
</g>
<g>
</g>
<g>
</g>
<g>
</g>
<g>
</g>
<g>
</g>
<g>
</g>
<g>
</g>
<g>
</g>
<g>
</g>
<g>
</g>
</svg>
