<?xml version="1.0" encoding="iso-8859-1"?>
<!-- Generator: Adobe Illustrator 19.0.0, SVG Export Plug-In . SVG Version: 6.00 Build 0)  -->
<svg version="1.1" id="Layer_1" xmlns="http://www.w3.org/2000/svg" xmlns:xlink="http://www.w3.org/1999/xlink" x="0px" y="0px"
	 viewBox="0 0 512 512" style="enable-background:new 0 0 512 512;" xml:space="preserve">
<g>
	<path style="fill:#507C5C;" d="M359.465,512c-1.866,0-3.748-0.361-5.54-1.102c-5.411-2.242-8.941-7.523-8.941-13.382v-81.165
		c0-7.998,6.486-14.484,14.484-14.484h81.165c5.859,0,11.139,3.53,13.382,8.941c2.241,5.413,1.001,11.642-3.14,15.784
		l-81.165,81.165C366.94,510.528,363.235,512,359.465,512z M373.952,430.835v31.714l31.714-31.714H373.952z"/>
	<path style="fill:#507C5C;" d="M295.402,512H92.287c-19.523,0-35.404-15.881-35.404-35.403V60.262
		c0-19.523,15.881-35.404,35.404-35.404h327.428c19.523,0,35.403,15.883,35.403,35.404v356.088c0,3.841-1.527,7.524-4.242,10.241
		l-81.165,81.165c-5.657,5.654-14.826,5.654-20.484,0c-5.656-5.656-5.656-14.827,0-20.484l76.923-76.923V60.262
		c0-3.549-2.887-6.437-6.435-6.437H92.287c-3.549,0-6.437,2.888-6.437,6.437v416.333c0,3.549,2.888,6.435,6.437,6.435h203.116
		c7.998,0,14.484,6.486,14.484,14.484C309.886,505.513,303.4,512,295.402,512z"/>
</g>
<path style="fill:#CFF09E;" d="M440.635,138.081V60.262c0-11.554-9.367-20.919-20.92-20.919H92.287
	c-11.554,0-20.92,9.365-20.92,20.919v77.818H440.635z"/>
<g>
	<path style="fill:#507C5C;" d="M440.635,152.564H71.366c-7.999,0-14.484-6.486-14.484-14.484V60.262
		c0-19.523,15.881-35.403,35.404-35.403h327.428c19.523,0,35.403,15.881,35.403,35.403v77.818
		C455.119,146.079,448.633,152.564,440.635,152.564z M85.85,123.597h340.3V60.262c0-3.549-2.887-6.435-6.435-6.435H92.287
		c-3.549,0-6.437,2.887-6.437,6.435V123.597z"/>
	<path style="fill:#507C5C;" d="M129.63,80.627c-7.999,0-14.484-6.486-14.484-14.484V14.484C115.146,6.486,121.631,0,129.63,0
		s14.484,6.486,14.484,14.484v51.659C144.114,74.141,137.63,80.627,129.63,80.627z"/>
	<path style="fill:#507C5C;" d="M213.876,80.627c-7.999,0-14.484-6.486-14.484-14.484V14.484C199.393,6.486,205.877,0,213.876,0
		s14.484,6.486,14.484,14.484v51.659C228.36,74.141,221.876,80.627,213.876,80.627z"/>
	<path style="fill:#507C5C;" d="M298.124,80.627c-7.998,0-14.484-6.486-14.484-14.484V14.484C283.64,6.486,290.126,0,298.124,0
		s14.484,6.486,14.484,14.484v51.659C312.608,74.141,306.122,80.627,298.124,80.627z"/>
	<path style="fill:#507C5C;" d="M382.371,80.627c-7.998,0-14.484-6.486-14.484-14.484V14.484C367.888,6.486,374.373,0,382.371,0
		s14.484,6.486,14.484,14.484v51.659C396.855,74.141,390.369,80.627,382.371,80.627z"/>
	<path style="fill:#507C5C;" d="M129.63,440.789c-7.999,0-14.484-6.486-14.484-14.484V194.083c0-7.998,6.484-14.484,14.484-14.484
		s14.484,6.486,14.484,14.484v232.222C144.114,434.303,137.63,440.789,129.63,440.789z"/>
</g>
<g>
</g>
<g>
</g>
<g>
</g>
<g>
</g>
<g>
</g>
<g>
</g>
<g>
</g>
<g>
</g>
<g>
</g>
<g>
</g>
<g>
</g>
<g>
</g>
<g>
</g>
<g>
</g>
<g>
</g>
</svg>
