<?xml version="1.0" encoding="iso-8859-1"?>
<!-- Generator: Adobe Illustrator 19.0.0, SVG Export Plug-In . SVG Version: 6.00 Build 0)  -->
<svg version="1.1" id="Layer_1" xmlns="http://www.w3.org/2000/svg" xmlns:xlink="http://www.w3.org/1999/xlink" x="0px" y="0px"
	 viewBox="0 0 512 512" style="enable-background:new 0 0 512 512;" xml:space="preserve">
<path style="fill:#B3404A;" d="M191.346,419.646H39.943C17.919,419.646,0,401.727,0,379.704V223.444
	c0-22.022,17.916-39.938,39.938-39.938H191.35c22.022,0,39.938,17.916,39.938,39.938v111.879c0,7.619-6.176,13.796-13.796,13.796
	s-13.796-6.176-13.796-13.796V223.444c0-6.808-5.539-12.347-12.347-12.347H39.938c-6.808,0-12.347,5.539-12.347,12.347v156.259
	c0,6.811,5.54,12.351,12.351,12.351h151.403c7.619,0,13.796,6.176,13.796,13.796S198.965,419.646,191.346,419.646z"/>
<rect x="216.951" y="217.723" style="fill:#F4B2B0;" width="281.252" height="133.059"/>
<g>
	<path style="fill:#B3404A;" d="M498.204,364.571H216.958c-7.619,0-13.796-6.176-13.796-13.796V217.718
		c0-7.619,6.176-13.796,13.796-13.796h281.247c7.619,0,13.796,6.176,13.796,13.796v133.058
		C512,358.395,505.824,364.571,498.204,364.571z M230.753,336.98h253.655V231.513H230.753V336.98z"/>
	<path style="fill:#B3404A;" d="M187.494,203.322c-7.619,0-13.796-6.176-13.796-13.796v-11.528
		c0-32.011-26.042-58.054-58.054-58.054s-58.054,26.042-58.054,58.054v11.528c0,7.619-6.176,13.796-13.796,13.796
		S30,197.146,30,189.526v-11.528c0-47.224,38.421-85.645,85.645-85.645s85.645,38.421,85.645,85.645v11.528
		C201.29,197.146,195.114,203.322,187.494,203.322z"/>
	<path style="fill:#B3404A;" d="M289.49,298.043h-19.453c-7.619,0-13.796-6.176-13.796-13.796c0-7.619,6.176-13.796,13.796-13.796
		h19.453c7.619,0,13.796,6.176,13.796,13.796C303.285,291.867,297.109,298.043,289.49,298.043z"/>
	<path style="fill:#B3404A;" d="M367.308,298.043h-19.455c-7.619,0-13.796-6.176-13.796-13.796c0-7.619,6.176-13.796,13.796-13.796
		h19.455c7.619,0,13.796,6.176,13.796,13.796C381.104,291.867,374.926,298.043,367.308,298.043z"/>
	<path style="fill:#B3404A;" d="M445.124,298.043h-19.453c-7.619,0-13.796-6.176-13.796-13.796c0-7.619,6.176-13.796,13.796-13.796
		h19.453c7.619,0,13.796,6.176,13.796,13.796C458.92,291.867,452.743,298.043,445.124,298.043z"/>
</g>
<circle style="fill:#F4B2B0;" cx="115.649" cy="299.421" r="33.11"/>
<path style="fill:#B3404A;" d="M115.645,346.329c-25.864,0-46.905-21.041-46.905-46.905c0-25.864,21.041-46.905,46.905-46.905
	s46.905,21.041,46.905,46.905C162.55,325.288,141.508,346.329,115.645,346.329z M115.645,280.11
	c-10.65,0-19.314,8.664-19.314,19.314c0,10.65,8.664,19.314,19.314,19.314s19.314-8.664,19.314-19.314
	C134.959,288.774,126.294,280.11,115.645,280.11z"/>
<g>
</g>
<g>
</g>
<g>
</g>
<g>
</g>
<g>
</g>
<g>
</g>
<g>
</g>
<g>
</g>
<g>
</g>
<g>
</g>
<g>
</g>
<g>
</g>
<g>
</g>
<g>
</g>
<g>
</g>
</svg>
