<?xml version="1.0" encoding="iso-8859-1"?>
<!-- Generator: Adobe Illustrator 19.0.0, SVG Export Plug-In . SVG Version: 6.00 Build 0)  -->
<svg version="1.1" id="Layer_1" xmlns="http://www.w3.org/2000/svg" xmlns:xlink="http://www.w3.org/1999/xlink" x="0px" y="0px"
	 viewBox="0 0 512 512" style="enable-background:new 0 0 512 512;" xml:space="preserve">
<g>
	<path style="fill:#507C5C;" d="M14.519,304.842C6.502,304.842,0,298.34,0,290.323v-95.425C0,130.248,52.598,77.65,117.248,77.65
		h309.611c8.017,0,14.519,6.502,14.519,14.519s-6.502,14.519-14.519,14.519H117.248c-48.639,0-88.21,39.572-88.21,88.21v95.425
		C29.038,298.342,22.536,304.842,14.519,304.842z"/>
	<path style="fill:#507C5C;" d="M77.932,261.282c-8.017,0-14.519-6.502-14.519-14.519V194.9c0-29.182,24.653-53.835,53.835-53.835
		h164.556c8.017,0,14.519,6.502,14.519,14.519s-6.502,14.519-14.519,14.519H117.248c-13.211,0-24.797,11.586-24.797,24.797v51.863
		C92.451,254.78,85.95,261.282,77.932,261.282z"/>
</g>
<polygon style="fill:#CFF09E;" points="361.627,29.659 497.481,124.86 361.627,220.063 "/>
<g>
	<path style="fill:#507C5C;" d="M361.625,234.582c-2.293,0-4.591-0.542-6.701-1.639c-4.804-2.5-7.817-7.466-7.817-12.88V29.657
		c0-5.414,3.013-10.38,7.817-12.88c4.803-2.502,10.6-2.12,15.034,0.99l135.853,95.203c3.878,2.718,6.187,7.155,6.187,11.89
		s-2.31,9.172-6.187,11.89l-135.853,95.201C367.472,233.696,364.555,234.582,361.625,234.582z M376.146,57.561v134.597
		l96.036-67.299L376.146,57.561z"/>
	<path style="fill:#507C5C;" d="M394.752,434.352H85.141c-8.017,0-14.519-6.502-14.519-14.519c0-8.017,6.502-14.519,14.519-14.519
		h309.611c48.639,0,88.21-39.572,88.21-88.21v-95.425c0-8.017,6.502-14.519,14.519-14.519S512,213.661,512,221.679v95.425
		C512,381.754,459.402,434.352,394.752,434.352z"/>
	<path style="fill:#507C5C;" d="M394.752,370.938H230.196c-8.017,0-14.519-6.502-14.519-14.519c0-8.017,6.502-14.519,14.519-14.519
		h164.556c13.211,0,24.797-11.586,24.797-24.797V265.24c0-8.017,6.502-14.519,14.519-14.519c8.017,0,14.519,6.502,14.519,14.519
		v51.863C448.587,346.284,423.932,370.938,394.752,370.938z"/>
</g>
<polygon style="fill:#CFF09E;" points="150.372,482.344 14.519,387.142 150.372,291.94 "/>
<path style="fill:#507C5C;" d="M150.373,496.863c-2.93,0-5.845-0.884-8.334-2.629L6.187,399.031C2.309,396.313,0,391.878,0,387.142
	c0-4.736,2.31-9.172,6.187-11.89l135.853-95.201c4.436-3.109,10.229-3.49,15.034-0.99c4.804,2.5,7.817,7.466,7.817,12.88v190.405
	c0,5.414-3.013,10.38-7.817,12.88C154.966,496.322,152.665,496.863,150.373,496.863z M39.818,387.142l96.036,67.3V319.844
	L39.818,387.142z"/>
<g>
</g>
<g>
</g>
<g>
</g>
<g>
</g>
<g>
</g>
<g>
</g>
<g>
</g>
<g>
</g>
<g>
</g>
<g>
</g>
<g>
</g>
<g>
</g>
<g>
</g>
<g>
</g>
<g>
</g>
</svg>
